/* XPM */
static char *result[] = {
/* columns rows colors chars-per-pixel */
"32 32 6 1 ",
"  c black",
". c #785A00",
"X c #B28600",
"o c #008FFF",
"O c #00E5F0",
"+ c white",
/* pixels */
"XXXXXXXXXXXXXXX++XXXXXXXXXXXXXXX",
"XXXXXXXXXXXXXX++++XXXXXXXXXXXXXX",
"XXXXXXXX  XXXX++++XXXX  XXXXXXXX",
"XXXXXXX    XXXX++XXXX    XXXXXXX",
"XXXXXXX    XXXX..XXXX    XXXXXXX",
"XXXXXXXX  XX++++++++XX  XXXXXXXX",
"XXXXXXXXXX+++OOOOOO+++XXXXXXXXXX",
"XXX++XXXX++OOOOOOOOOOO+XXXX++XXX",
"XX++++XX++OOOOOOOOOOOOO+XX++++XX",
"XX++++X+o+OOOOOOOOOOOOOO+X++++XX",
"XXX++X+o+OOOOOOOOOOOOOOOO+X++XXX",
"XXXXXX+o+OOOOOOOOOOOOOOOO+XXXXXX",
"XXXXX+oo+OOOOO++++OOOOOOOO+XXXXX",
"XXXXX+oo+OOOO+X..X+++OOOOO+XXXXX",
"X  XX+oo+OOO+XX..XX+o+OOOO+XX  X",
"    .+oo++OO+......+oo+OOO+.    ",
"    .+ooo+OO+......+oo++OO+.    ",
"X  XX+oooo+O+XX..XX+ooo+OO+XX  X",
"XXXXX+ooooo+++X..X+oooo+OO+XXXXX",
"XXXXX+ooooooo+++++ooooo+OO+XXXXX",
"XXXXXX+oooooooooooooooo+O+XXXXXX",
"XXX++X+oooooooooooooooo+O+X++XXX",
"XX++++X+oooooooooooooo+O+X++++XX",
"XX++++XX+ooooooooooooo++XX++++XX",
"XXX++XXXX+oooooooooooo+XXXX++XXX",
"XXXXXXXXXX++oooooooo++XXXXXXXXXX",
"XXXXXXXX  XX++++++++XX  XXXXXXXX",
"XXXXXXX    XXXX..XXXX    XXXXXXX",
"XXXXXXX    XXXX++XXXX    XXXXXXX",
"XXXXXXXX  XXXX++++XXXX  XXXXXXXX",
"XXXXXXXXXXXXXX++++XXXXXXXXXXXXXX",
"XXXXXXXXXXXXXXX++XXXXXXXXXXXXXXX"
};
