/* XPM */
static char *d19b2b8eb15b4a28a0da26ebf8d3907eICtvuabjcnt9cfok[] = {
/* columns rows colors chars-per-pixel */
"32 32 5 1 ",
"  c None",
". c black",
"X c #008FFF",
"o c #00E5F0",
"O c white",
/* pixels */
"               OO               ",
"              OOOO              ",
"        ..    OOOO    ..        ",
"       ....    OO    ....       ",
"       ....          ....       ",
"        ..  OOOOOOOO  ..        ",
"          OOOooooooOOO          ",
"   OO    OOoooooooooooO    OO   ",
"  OOOO  OOoooooooooooooO  OOOO  ",
"  OOOO OXOooooooooooooooO OOOO  ",
"   OO OXOooooooooooooooooO OO   ",
"      OXOooooooooooooooooO      ",
"     OXXOoooooOOOOooooooooO     ",
"     OXXOooooO    OOOoooooO     ",
" ..  OXXOoooO      OXOooooO  .. ",
".... OXXOOooO      OXXOoooO ....",
".... OXXXOooO      OXXOOooO ....",
" ..  OXXXXOoO      OXXXOooO  .. ",
"     OXXXXXOOO    OXXXXOooO     ",
"     OXXXXXXXOOOOOXXXXXOooO     ",
"      OXXXXXXXXXXXXXXXXOoO      ",
"   OO OXXXXXXXXXXXXXXXXOoO OO   ",
"  OOOO OXXXXXXXXXXXXXXOoO OOOO  ",
"  OOOO  OXXXXXXXXXXXXXOO  OOOO  ",
"   OO    OXXXXXXXXXXXXO    OO   ",
"          OOXXXXXXXXOO          ",
"        ..  OOOOOOOO  ..        ",
"       ....          ....       ",
"       ....    OO    ....       ",
"        ..    OOOO    ..        ",
"              OOOO              ",
"               OO               "
};
