/* XPM */
static char *result[] = {
/* columns rows colors chars-per-pixel */
"32 32 5 1 ",
"  c black",
". c #785A00",
"X c gray30",
"o c #B28600",
"O c gray75",
/* pixels */
"ooooooooooooooo..ooooooooooooooo",
"ooooooooooooooo..ooooooooooooooo",
"ooooooooooooooo..ooooooooooooooo",
"oooooooooooooXXXXXXooooooooooooo",
"oooooooooooXXOOOOOOXXooooooooooo",
"oooooooooXXOOOOOOOOOOXXooooooooo",
"ooooooooXOOOOOOOOOOOOOOXoooooooo",
"ooooooooXOOOOOOOOOOOOOOXoooooooo",
"oooooooXOOOOOOOOOOOOOOOOXooooooo",
"ooooooXOO   O  O   O   OOXoooooo",
"ooooooXOO   O  O O O   OOXoooooo",
"ooooooXOO OOOO  OO OO OOOXoooooo",
"oooooXOOO OOOO  OO OO OOOOXooooo",
"oooooXOOO OOOO  OO OO OOOOXooooo",
"oooooXOOO OOOO  OO OO OOOOXooooo",
".....XOOO   OOO OO OO OOOOX.....",
".....XOOO   OO  OO OO OOOOX.....",
"oooooXOOO OOOO  OO OO OOOOXooooo",
"oooooXOOO OOOO  OO OO OOOOXooooo",
"oooooXOOO OOOO O O OO OOOOXooooo",
"ooooooXOO OOOO O O OO OOOXoooooo",
"ooooooXOO   O  O O OO OOOXoooooo",
"ooooooXOO   O  O    O OOOXoooooo",
"oooooooXOOOOOOOOOOOOOOOOXooooooo",
"ooooooooXOOOOOOOOOOOOOOXoooooooo",
"ooooooooXOOOOOOOOOOOOOOXoooooooo",
"oooooooooXXOOOOOOOOOOXXooooooooo",
"oooooooooooXXOOOOOOXXooooooooooo",
"oooooooooooooXXXXXXooooooooooooo",
"ooooooooooooooo..ooooooooooooooo",
"ooooooooooooooo..ooooooooooooooo",
"ooooooooooooooo..ooooooooooooooo"
};
