/* XPM */
static char *result[] = {
/* columns rows colors chars-per-pixel */
"32 32 5 1 ",
"  c black",
". c #785A00",
"X c gray30",
"o c #B28600",
"O c gray75",
/* pixels */
"ooooooooooooooo..ooooooooooooooo",
"ooooooooooooooo..ooooooooooooooo",
"ooooooooooooooo..ooooooooooooooo",
"oooooooooooooXXXXXXooooooooooooo",
"oooooooooooXXOOOOOOXXooooooooooo",
"oooooooooXXOOOOOOOOOOXXooooooooo",
"ooooooooXOOOOOOOOOOOOOOXoooooooo",
"ooooooooXOOOOOOOOOOOOOOXoooooooo",
"oooooooXOOOOOOOOOOOOOOOOXooooooo",
"ooooooXOO   O   O  O   OOXoooooo",
"ooooooXOO   O O O  O   OOXoooooo",
"ooooooXOOO OO OO  OOOO OOXoooooo",
"oooooXOOOO OO OO  OOOO OOOXooooo",
"oooooXOOOO OO OO  OOOO OOOXooooo",
"oooooXOOOO OO OO  OOOO OOOXooooo",
".....XOOOO OO OO OOO   OOOX.....",
".....XOOOO OO OO  OO   OOOX.....",
"oooooXOOOO OO OO  OOOO OOOXooooo",
"oooooXOOOO OO OO  OOOO OOOXooooo",
"oooooXOOOO OO O O OOOO OOOXooooo",
"ooooooXOOO OO O O OOOO OOXoooooo",
"ooooooXOOO OO O O  O   OOXoooooo",
"ooooooXOOO O    O  O   OOXoooooo",
"oooooooXOOOOOOOOOOOOOOOOXooooooo",
"ooooooooXOOOOOOOOOOOOOOXoooooooo",
"ooooooooXOOOOOOOOOOOOOOXoooooooo",
"oooooooooXXOOOOOOOOOOXXooooooooo",
"oooooooooooXXOOOOOOXXooooooooooo",
"oooooooooooooXXXXXXooooooooooooo",
"ooooooooooooooo..ooooooooooooooo",
"ooooooooooooooo..ooooooooooooooo",
"ooooooooooooooo..ooooooooooooooo"
};
