/* XPM */
static char *result[] = {
/* columns rows colors chars-per-pixel */
"32 32 4 1 ",
"  c #785A00",
". c gray30",
"X c #B28600",
"o c gray75",
/* pixels */
"XXXXXXXXXXXXXXX  XXXXXXXXXXXXXXX",
"XXXXXXXXXXXXXXX  XXXXXXXXXXXXXXX",
"XXXXXXXXXXXXXXX  XXXXXXXXXXXXXXX",
"XXXXXXXXXXXXXXX..XXXXXXXXXXXXXXX",
"XXXXXXXXXXXXXXX..XXXXXXXXXXXXXXX",
"XXXXXXXXXXXXXX.oo.XXXXXXXXXXXXXX",
"XXXXXXXXXXXXXX.oo.XXXXXXXXXXXXXX",
"XXXXXXXXXXXXXX.oo.XXXXXXXXXXXXXX",
"XXXXXXXXXXXXXX.oo.XXXXXXXXXXXXXX",
"XXXXXXXXXXXXXX.oo.XXXXXXXXXXXXXX",
"XXXXXXXXXXXXXX.oo.XXXXXXXXXXXXXX",
"XXXXXXXXXXXXXX.oo.XXXXXXXXXXXXXX",
"XXXXXXXXXXXXXX.oo.XXXXXXXXXXXXXX",
"XXXXXXXXXXXXXX.oo.XXXXXXXXXXXXXX",
"XXXXXXXXXXXXXX.oo.XXXXXXXXXXXXXX",
"              .oo.              ",
"              .oo.              ",
"XXXXXXXXXXXXXX.oo.XXXXXXXXXXXXXX",
"XXXXXXXXXXXXXX.oo.XXXXXXXXXXXXXX",
"XXXXXXXXXXXXXX.oo.XXXXXXXXXXXXXX",
"XXXXXXXXXXXXXX.oo.XXXXXXXXXXXXXX",
"XXXXXXXXXXXXXX.oo.XXXXXXXXXXXXXX",
"XXXXXXXXXXXXXX.oo.XXXXXXXXXXXXXX",
"XXXXXXXXXXXXXX.oo.XXXXXXXXXXXXXX",
"XXXXXXXXXXXXXX.oo.XXXXXXXXXXXXXX",
"XXXXXXXXXXXXXX.oo.XXXXXXXXXXXXXX",
"XXXXXXXXXXXXXX.oo.XXXXXXXXXXXXXX",
"XXXXXXXXXXXXXXX..XXXXXXXXXXXXXXX",
"XXXXXXXXXXXXXXX..XXXXXXXXXXXXXXX",
"XXXXXXXXXXXXXXX  XXXXXXXXXXXXXXX",
"XXXXXXXXXXXXXXX  XXXXXXXXXXXXXXX",
"XXXXXXXXXXXXXXX  XXXXXXXXXXXXXXX"
};
