/* XPM */
static char *result[] = {
/* columns rows colors chars-per-pixel */
"32 32 5 1 ",
"  c black",
". c #785A00",
"X c gray30",
"o c #B28600",
"O c #FFBF00",
/* pixels */
"ooooooooooooooo..ooooooooooooooo",
"ooooooooooooooo..ooooooooooooooo",
"ooooooooooooooo..ooooooooooooooo",
"ooooooooooooooXXXXoooooooooooooo",
"oooooooooooooXOOOOXooooooooooooo",
"ooooooooooooXOOOOOOXoooooooooooo",
"ooooooooooooXOOOOOOXoooooooooooo",
"oooooooooooXOOOOOOOOXooooooooooo",
"oooooooooooXOOOOOOOOXooooooooooo",
"oooooooooooXOOOOOOOOXooooooooooo",
"ooooooooooXOOO OOO OOXoooooooooo",
"ooooooooooXOO   O   OXoooooooooo",
"ooooooooooXOO O O O OXoooooooooo",
"ooooooooooXOO O O O OXoooooooooo",
"ooooooooooXOO O O O OXoooooooooo",
"..........XOO OOO O OX..........",
"..........XOO   O O OX..........",
"ooooooooooXOO   O O OXoooooooooo",
"ooooooooooXOO O O O OXoooooooooo",
"ooooooooooXOO O O O OXoooooooooo",
"ooooooooooXOO O O O OXoooooooooo",
"ooooooooooXOO   O   OXoooooooooo",
"oooooooooooXOO OOO OXooooooooooo",
"oooooooooooXOOOOOOOOXooooooooooo",
"oooooooooooXOOOOOOOOXooooooooooo",
"ooooooooooooXOOOOOOXoooooooooooo",
"ooooooooooooXOOOOOOXoooooooooooo",
"oooooooooooooXOOOOXooooooooooooo",
"ooooooooooooooXXXXoooooooooooooo",
"ooooooooooooooo..ooooooooooooooo",
"ooooooooooooooo..ooooooooooooooo",
"ooooooooooooooo..ooooooooooooooo"
};
