/* XPM */
static char *result[] = {
/* columns rows colors chars-per-pixel */
"32 32 5 1 ",
"  c black",
". c #785A00",
"X c gray30",
"o c #B28600",
"O c #FFBF00",
/* pixels */
"ooooooooooooooo..ooooooooooooooo",
"ooooooooooooooo..ooooooooooooooo",
"ooooooooooooooo..ooooooooooooooo",
"ooooooooooooXXXXXXXXoooooooooooo",
"ooooooooooXXOOOOOOOOXXoooooooooo",
"ooooooooXXOOOOOOOOOOOOXXoooooooo",
"oooooooXOOOOOOOOOOOOOOOOXooooooo",
"ooooooXOOOOOOOOOOOOOOOOOOXoooooo",
"oooooXOOOOOOOOOOOOOOOOOOOOXooooo",
"oooooXOOOOOOOOOOOOOOOOOOOOXooooo",
"ooooXOOOO    OOOOOO    OOOOXoooo",
"ooooXOOO      OOOO      OOOXoooo",
"oooXOOO   OO   OO   OO   OOOXooo",
"oooXOOO  OOOO  OO  OOOO  OOOXooo",
"oooXOOO  OOOO  OO  OOOO  OOOXooo",
"...XOOO  OOOOOOOO  OOOO  OOOX...",
"...XOOO  OO    OO  OOOO  OOOX...",
"oooXOOO  OO    OO  OOOO  OOOXooo",
"oooXOOO  OOOO  OO  OOOO  OOOXooo",
"oooXOOO   OO   OO   OO   OOOXooo",
"ooooXOOO       OOO      OOOXoooo",
"ooooXOOOO    O OOOO    OOOOXoooo",
"oooooXOOOOOOOOOOOOOOOOOOOOXooooo",
"oooooXOOOOOOOOOOOOOOOOOOOOXooooo",
"ooooooXOOOOOOOOOOOOOOOOOOXoooooo",
"oooooooXOOOOOOOOOOOOOOOOXooooooo",
"ooooooooXXOOOOOOOOOOOOXXoooooooo",
"ooooooooooXXOOOOOOOOXXoooooooooo",
"ooooooooooooXXXXXXXXoooooooooooo",
"ooooooooooooooo..ooooooooooooooo",
"ooooooooooooooo..ooooooooooooooo",
"ooooooooooooooo..ooooooooooooooo"
};
