/* XPM */
static char *result[] = {
/* columns rows colors chars-per-pixel */
"32 32 5 1 ",
"  c black",
". c #785A00",
"X c gray30",
"o c #B28600",
"O c #FFBF00",
/* pixels */
"ooooooooooooooo..ooooooooooooooo",
"ooooooooooooooo..ooooooooooooooo",
"ooooooooooooooo..ooooooooooooooo",
"oooooooooooooXXXXXXooooooooooooo",
"oooooooooooXXOOOOOOXXooooooooooo",
"oooooooooXXOOOOOOOOOOXXooooooooo",
"ooooooooXOOOOOOOOOOOOOOXoooooooo",
"ooooooooXOOOOOOOOOOOOOOXoooooooo",
"oooooooXOOOOOOOOOOOOOOOOXooooooo",
"ooooooXOOOOOOOOOOOOOOOOOOXoooooo",
"ooooooXOOOO   OOOOO   OOOXoooooo",
"ooooooXOOO     OOO     OOXoooooo",
"oooooXOOO   OO  O   OO  OOXooooo",
"oooooXOOO  OOOO O  OOOO OOXooooo",
"oooooXOOO  OOOO O  OOOO OOXooooo",
".....XOOO  OOOOOO  OOOO OOX.....",
".....XOOO  OOO  O  OOOO OOX.....",
"oooooXOOO  OOO  O  OOOO OOXooooo",
"oooooXOOO  OOOO O  OOOO OOXooooo",
"oooooXOOO   OO  O   OO  OOXooooo",
"ooooooXOOO      OO     OOXoooooo",
"ooooooXOOOO   O OOO   OOOXoooooo",
"ooooooXOOOOOOOOOOOOOOOOOOXoooooo",
"oooooooXOOOOOOOOOOOOOOOOXooooooo",
"ooooooooXOOOOOOOOOOOOOOXoooooooo",
"ooooooooXOOOOOOOOOOOOOOXoooooooo",
"oooooooooXXOOOOOOOOOOXXooooooooo",
"oooooooooooXXOOOOOOXXooooooooooo",
"oooooooooooooXXXXXXooooooooooooo",
"ooooooooooooooo..ooooooooooooooo",
"ooooooooooooooo..ooooooooooooooo",
"ooooooooooooooo..ooooooooooooooo"
};
