/* XPM */
static char *result[] = {
/* columns rows colors chars-per-pixel */
"32 32 5 1 ",
"  c black",
". c #785A00",
"X c gray30",
"o c #B28600",
"O c #FFBF00",
/* pixels */
"ooooooooooooooo..ooooooooooooooo",
"ooooooooooooooo..ooooooooooooooo",
"ooooooooooooooo..ooooooooooooooo",
"ooooooooooooooXXXXoooooooooooooo",
"oooooooooooooXOOOOXooooooooooooo",
"ooooooooooooXOOOOOOXoooooooooooo",
"ooooooooooooXOOOOOOXoooooooooooo",
"oooooooooooXOOOOOOOOXooooooooooo",
"oooooooooooXOOOOOOOOXooooooooooo",
"oooooooooooXOOOOOOOOXooooooooooo",
"ooooooooooXOO OOO OOOXoooooooooo",
"ooooooooooXO   O   OOXoooooooooo",
"ooooooooooXO O O O OOXoooooooooo",
"ooooooooooXO O O O OOXoooooooooo",
"ooooooooooXO O O O OOXoooooooooo",
"..........XO O OOO OOX..........",
"..........XO O O   OOX..........",
"ooooooooooXO O O   OOXoooooooooo",
"ooooooooooXO O O O OOXoooooooooo",
"ooooooooooXO O O O OOXoooooooooo",
"ooooooooooXO O O O OOXoooooooooo",
"ooooooooooXO   O   OOXoooooooooo",
"oooooooooooXO OOO OOXooooooooooo",
"oooooooooooXOOOOOOOOXooooooooooo",
"oooooooooooXOOOOOOOOXooooooooooo",
"ooooooooooooXOOOOOOXoooooooooooo",
"ooooooooooooXOOOOOOXoooooooooooo",
"oooooooooooooXOOOOXooooooooooooo",
"ooooooooooooooXXXXoooooooooooooo",
"ooooooooooooooo..ooooooooooooooo",
"ooooooooooooooo..ooooooooooooooo",
"ooooooooooooooo..ooooooooooooooo"
};
