/* XPM */
static char *result[] = {
/* columns rows colors chars-per-pixel */
"32 32 5 1 ",
"  c black",
". c #785A00",
"X c gray30",
"o c #B28600",
"O c #FFBF00",
/* pixels */
"ooooooooooooooo..ooooooooooooooo",
"ooooooooooooooo..ooooooooooooooo",
"ooooooooooooooo..ooooooooooooooo",
"oooooooooooooXXXXXXooooooooooooo",
"oooooooooooXXOOOOOOXXooooooooooo",
"oooooooooXXOOOOOOOOOOXXooooooooo",
"ooooooooXOOOOOOOOOOOOOOXoooooooo",
"ooooooooXOOOOOOOOOOOOOOXoooooooo",
"oooooooXOOOOOOOOOOOOOOOOXooooooo",
"ooooooXOOOOOOOOOOOOOOOOOOXoooooo",
"ooooooXOOO   OOOOO   OOOOXoooooo",
"ooooooXOO     OOO     OOOXoooooo",
"oooooXOO  OO   O  OO   OOOXooooo",
"oooooXOO OOOO  O OOOO  OOOXooooo",
"oooooXOO OOOO  O OOOO  OOOXooooo",
".....XOO OOOO  OOOOOO  OOOX.....",
".....XOO OOOO  O  OOO  OOOX.....",
"oooooXOO OOOO  O  OOO  OOOXooooo",
"oooooXOO OOOO  O OOOO  OOOXooooo",
"oooooXOO  OO   O  OO   OOOXooooo",
"ooooooXOO     OO      OOOXoooooo",
"ooooooXOOO   OOO O   OOOOXoooooo",
"ooooooXOOOOOOOOOOOOOOOOOOXoooooo",
"oooooooXOOOOOOOOOOOOOOOOXooooooo",
"ooooooooXOOOOOOOOOOOOOOXoooooooo",
"ooooooooXOOOOOOOOOOOOOOXoooooooo",
"oooooooooXXOOOOOOOOOOXXooooooooo",
"oooooooooooXXOOOOOOXXooooooooooo",
"oooooooooooooXXXXXXooooooooooooo",
"ooooooooooooooo..ooooooooooooooo",
"ooooooooooooooo..ooooooooooooooo",
"ooooooooooooooo..ooooooooooooooo"
};
