/* XPM */
static char *_e3f3fc1caf24e06de750e857b814ec6bA7FIal0AeRl09tT[] = {
/* columns rows colors chars-per-pixel */
"32 32 4 1 ",
"  c #785A00",
". c #B28600",
"X c gray75",
"o c #CECECE",
/* pixels */
"...............  ...............",
"...............  ...............",
"...............  ...............",
"...............oo...............",
"...............oo...............",
"..............oXXo..............",
"..............oXXo..............",
"..............oXXo..............",
"..............oXXo..............",
"..............oXXo..............",
"..............oXXo..............",
"..............oXXo..............",
"..............oXXo..............",
"..............oXXo..............",
"..............oXXo..............",
"              oXXo              ",
"              oXXo              ",
"..............oXXo..............",
"..............oXXo..............",
"..............oXXo..............",
"..............oXXo..............",
"..............oXXo..............",
"..............oXXo..............",
"..............oXXo..............",
"..............oXXo..............",
"..............oXXo..............",
"..............oXXo..............",
"...............oo...............",
"...............oo...............",
"...............  ...............",
"...............  ...............",
"...............  ..............."
};
