/* XPM */
static char *player_xpm[] = {
/* columns rows colors chars-per-pixel */
"32 32 5 1 ",
"  c black",
". c #785A00",
"X c gray30",
"o c #B28600",
"r c #FF0000",
/* pixels */
"ooooooooooooooo..ooooooooooooooo",
"oooooooooooo        oooooooooooo",
"ooooooooooo rrrrrrrr ooooooooooo",
"oooooooooo rrrrrrrrrr oooooooooo",
"oooooooooo rrrrrrrrrr oooooooooo",
"ooooooooXX rrrrrrrrrr XXoooooooo",
"oooooooX   rrrrrrrrrr   Xooooooo",
"ooooooX    rrrrrrrrrr    Xoooooo",
"oooooX     rrrrrrrrrr     Xooooo",
"oooooX     rrrrrrrrrr     Xooooo",
"ooooX      rrrrrrrrrr      Xoooo",
"ooooX  rrrrrrrrrrrrrrrrrr  Xoooo",
"oooX    rrrrrrrrrrrrrrrr    Xooo",
"oooX     rrrrrrrrrrrrrr     Xooo",
"oooX      rrrrrrrrrrrr      Xooo",
"...X       rrrrrrrrrr       X...",
"...X        rrrrrrrr        X...",
"oooX         rrrrrr         Xooo",
"oooX          rrrr          Xooo",
"oooX           rr           Xooo",
"ooooX                      Xoooo",
"ooooX                      Xoooo",
"oooooX                    Xooooo",
"oooooX                    Xooooo",
"ooooooX                  Xoooooo",
"oooooooX                Xooooooo",
"ooooooooXX            XXoooooooo",
"ooooooooooXX        XXoooooooooo",
"ooooooooooooXXXXXXXXoooooooooooo",
"ooooooooooooooo..ooooooooooooooo",
"ooooooooooooooo..ooooooooooooooo",
"ooooooooooooooo..ooooooooooooooo"
};
