/* XPM */
static char *tile_xpm[] = {
/* columns rows colors chars-per-pixel */
"32 32 2 1 ",
"  c #785A00",
". c #B28600",
/* pixels */
"...............  ...............",
"...............  ...............",
"...............  ...............",
"...............  ...............",
"...............  ...............",
"...............  ...............",
"...............  ...............",
"...............  ...............",
"...............  ...............",
"...............  ...............",
"...............  ...............",
"...............  ...............",
"...............  ...............",
"...............  ...............",
"...............  ...............",
"                                ",
"                                ",
"...............  ...............",
"...............  ...............",
"...............  ...............",
"...............  ...............",
"...............  ...............",
"...............  ...............",
"...............  ...............",
"...............  ...............",
"...............  ...............",
"...............  ...............",
"...............  ...............",
"...............  ...............",
"...............  ...............",
"...............  ...............",
"...............  ..............."
};
