/* XPM */
static char *player_xpm[] = {
/* columns rows colors chars-per-pixel */
"32 32 5 1 ",
"  c white",
". c #785A00",
"X c gray30",
"o c #B28600",
"r c #FF0000",
/* pixels */
"ooooooooooooooo..ooooooooooooooo",
"ooooooooooooooo..ooooooooooooooo",
"ooooooooooooooo..ooooooooooooooo",
"oooooooooooo        oooooooooooo",
"ooooooooooX rrrrrrrr Xoooooooooo",
"ooooooooXX  rrrrrrrr  XXoooooooo",
"oooooooX    rrrrrrrr    Xooooooo",
"ooooooX     rrrrrrrr     Xoooooo",
"oooooX      rrrrrrrr      Xooooo",
"oooooX  rrrrrrrrrrrrrrrr  Xooooo",
"ooooX    rrrrrrrrrrrrrr    Xoooo",
"ooooX     rrrrrrrrrrrr     Xoooo",
"oooX       rrrrrrrrrr       Xooo",
"oooX        rrrrrrrr        Xooo",
"oooX         rrrrrr         Xooo",
"...X          rrrr          X...",
"...X           rr           X...",
"oooX                        Xooo",
"oooX                        Xooo",
"oooX                        Xooo",
"ooooX                      Xoooo",
"ooooX                      Xoooo",
"oooooX                    Xooooo",
"oooooX                    Xooooo",
"ooooooX                  Xoooooo",
"oooooooX                Xooooooo",
"ooooooooXX            XXoooooooo",
"ooooooooooXX        XXoooooooooo",
"ooooooooooooXXXXXXXXoooooooooooo",
"ooooooooooooooo..ooooooooooooooo",
"ooooooooooooooo..ooooooooooooooo",
"ooooooooooooooo..ooooooooooooooo"
};
